<?xml version="1.0" standalone="no"?>
<!DOCTYPE svg PUBLIC "-//W3C//DTD SVG 20010904//EN"
 "http://www.w3.org/TR/2001/REC-SVG-20010904/DTD/svg10.dtd">
<svg version="1.0" xmlns="http://www.w3.org/2000/svg"
 width="1280.000000pt" height="1110.000000pt" viewBox="0 0 1280.000000 1110.000000"
 preserveAspectRatio="xMidYMid meet">
<g transform="translate(0.000000,1110.000000) scale(0.100000,-0.100000)"
fill="#000000" stroke="none">
<path d="M7958 11095 c-3 -3 -65 -12 -138 -20 -74 -9 -152 -20 -174 -26 -97
-24 -207 -65 -289 -105 -172 -85 -244 -132 -562 -367 -126 -94 -279 -203 -340
-243 -211 -138 -411 -225 -600 -259 -49 -9 -153 -40 -230 -70 -447 -170 -787
-276 -1725 -535 -751 -207 -1098 -314 -1478 -455 -287 -106 -406 -160 -479
-216 -270 -210 -552 -501 -805 -829 -114 -148 -213 -291 -591 -855 l-369 -550
-44 -130 c-96 -292 -152 -716 -125 -949 7 -56 17 -141 22 -191 49 -432 189
-897 445 -1475 106 -240 379 -774 449 -880 181 -273 473 -508 853 -687 177
-83 370 -158 772 -298 201 -70 439 -156 530 -192 381 -150 1851 -676 2350
-841 1206 -399 2032 -592 3220 -756 684 -94 1385 -148 2132 -163 315 -6 273
-11 503 58 127 39 338 140 463 222 568 373 949 1015 1033 1742 22 191 22 247
-1 426 -43 342 -131 601 -289 848 -81 126 -136 287 -192 564 -47 234 -61 397
-61 702 1 431 33 700 197 1610 133 742 170 1041 182 1470 6 237 -4 418 -33
605 -123 778 -531 1380 -1108 1632 -186 81 -392 117 -851 148 -410 27 -520 40
-695 80 -270 62 -456 160 -665 351 -55 51 -163 139 -240 197 -352 265 -565
371 -847 421 -112 20 -209 27 -220 16z m253 -464 c229 -62 387 -161 763 -476
385 -321 541 -417 772 -475 77 -20 112 -23 269 -21 818 6 1354 -138 1683 -453
124 -119 215 -251 273 -396 146 -368 208 -715 209 -1157 0 -367 -31 -648 -160
-1428 -126 -767 -143 -905 -160 -1310 -13 -321 -55 -503 -170 -739 -226 -464
-610 -746 -1020 -748 -131 -1 -331 33 -481 82 -452 148 -840 499 -998 903 -81
208 -101 407 -67 662 54 404 82 526 202 856 242 672 293 870 294 1138 l0 104
-92 -5 c-294 -17 -455 -220 -542 -683 -14 -77 -44 -248 -65 -380 -22 -132 -52
-280 -66 -330 -33 -109 -47 -176 -85 -410 -71 -439 -99 -782 -108 -1325 l-7
-375 -52 -105 c-136 -279 -371 -512 -658 -654 -367 -182 -746 -194 -1065 -34
-97 49 -110 60 -188 148 -287 325 -452 731 -519 1280 -25 205 -24 831 1 1150
10 124 20 297 21 385 5 313 39 423 290 925 89 179 178 366 198 415 77 192 115
411 99 560 l-7 70 -38 -2 c-51 -3 -167 -45 -235 -85 -86 -50 -219 -188 -271
-282 -98 -174 -148 -330 -245 -771 -35 -159 -80 -344 -99 -410 -60 -207 -118
-536 -147 -835 -18 -188 -24 -599 -11 -796 33 -497 128 -983 274 -1402 l32
-93 242 -230 c334 -318 484 -484 608 -670 176 -263 247 -478 248 -744 1 -136
0 -142 -28 -195 -41 -77 -166 -200 -241 -238 -108 -54 -165 -67 -309 -66 -232
1 -437 61 -848 251 -65 29 -218 89 -340 133 -276 97 -528 191 -1092 405 -1029
390 -1548 572 -2065 721 -268 78 -287 89 -451 253 -304 306 -455 688 -520
1321 -7 67 -13 287 -13 530 -1 462 -3 475 -67 542 -31 33 -42 38 -81 38 -91 0
-216 -88 -388 -275 -46 -49 -88 -91 -95 -93 -16 -4 -74 141 -109 268 -90 331
-82 693 24 1062 101 354 300 711 557 1003 43 50 143 182 222 295 264 376 417
567 601 750 404 404 702 533 1735 756 625 135 954 230 1215 349 157 72 175 78
627 219 633 197 860 281 1143 422 261 131 460 265 650 439 167 152 337 249
482 274 29 6 130 8 223 7 134 -3 186 -8 246 -25z m1075 -6965 c81 -38 120
-111 112 -216 -11 -158 -131 -246 -234 -172 -61 45 -91 96 -110 192 -18 95
-11 146 27 194 18 23 27 26 87 26 49 0 80 -6 118 -24z m2640 -47 c12 -35 62
-167 112 -294 232 -593 293 -801 323 -1095 20 -198 -8 -423 -73 -594 -54 -142
-185 -398 -252 -491 -221 -306 -542 -543 -905 -669 -309 -107 -664 -125 -966
-48 -62 16 -76 17 -140 4 -202 -39 -341 34 -392 207 -24 81 -21 258 7 391 26
129 96 342 150 457 46 100 49 133 20 249 -84 332 -438 727 -724 809 -74 22
-195 17 -248 -9 -44 -21 -113 -87 -134 -128 -13 -26 -12 -31 12 -70 39 -62
114 -149 311 -358 276 -294 356 -422 357 -570 0 -67 -3 -82 -34 -138 -42 -80
-112 -143 -248 -227 -244 -150 -377 -194 -613 -202 -168 -6 -289 10 -431 57
-341 114 -551 337 -604 643 -20 114 -10 200 42 357 161 485 618 828 1254 942
117 20 501 17 615 -5 121 -24 532 -34 745 -18 768 58 1332 314 1691 766 46 58
88 104 93 102 5 -2 19 -32 32 -68z"/>
<path d="M3717 6718 c-154 -279 -260 -586 -336 -978 -38 -198 -61 -363 -111
-790 -66 -564 -106 -822 -161 -1045 -27 -110 -38 -416 -20 -584 53 -505 274
-937 604 -1182 89 -67 404 -229 552 -284 129 -48 332 -99 481 -121 163 -24
478 -24 634 0 395 59 726 204 1006 439 95 79 154 140 154 158 0 17 -159 86
-228 100 -39 7 -106 10 -180 6 -169 -7 -250 -33 -636 -201 -335 -146 -470
-182 -651 -173 -133 6 -182 21 -350 102 -250 122 -425 251 -598 443 -145 162
-269 373 -332 567 -37 113 -65 290 -65 408 0 150 61 531 239 1489 127 681 181
1007 226 1355 25 193 26 203 10 237 -30 63 -110 116 -174 116 -26 0 -34 -8
-64 -62z"/>
</g>
</svg>
